<?xml version="1.0" encoding="utf-8"?>
<!-- Generator: Adobe Illustrator 21.0.0, SVG Export Plug-In . SVG Version: 6.00 Build 0)  -->
<svg version="1.1" id="Layer_1" xmlns="http://www.w3.org/2000/svg" xmlns:xlink="http://www.w3.org/1999/xlink" x="0px" y="0px"
	 viewBox="0 0 48 48" style="enable-background:new 0 0 48 48;" xml:space="preserve">
<style type="text/css">
	.st0{fill:#FBB040;}
	.st1{opacity:0.2;enable-background:new    ;}
	.st2{fill:#FFFFFF;}
</style>
<g>
	<g id="outerdark">
		<g>
			<path class="st0" d="M24,0C10.7,0,0,10.7,0,24s10.7,24,24,24s24-10.7,24-24S37.3,0,24,0z M23.9,44.9c-11.5,0-20.8-9.3-20.8-20.8
				S12.4,3.3,23.9,3.3s20.8,9.3,20.8,20.8S35.5,44.9,23.9,44.9z"/>
		</g>
	</g>
	<g id="outerlight">
		<g class="st1">
			<path class="st2" d="M41,7.1l-2.3,2.3c3.8,3.8,6.1,9,6.1,14.7c0,11.5-9.3,20.8-20.8,20.8c-5.7,0-11-2.3-14.7-6.1L7.1,41
				c9.4,9.4,24.6,9.4,33.9,0S50.3,16.5,41,7.1z"/>
		</g>
	</g>
	<g id="innerdark">
		<g>
			<circle class="st0" cx="23.9" cy="24.1" r="18.3"/>
		</g>
	</g>
	<g id="Email">
		<g>
			<g>
				<path class="st2" d="M23.9,25.1c-0.2,0-0.4-0.1-0.5-0.2l-4.8-3.5l-4.5-3.3c-0.3-0.2-0.4-0.6-0.3-1c0.1-0.4,0.5-0.6,0.9-0.6h18.6
					c0.4,0,0.7,0.3,0.9,0.6c0.1,0.4,0,0.8-0.3,1l-4.5,3.3l-4.9,3.5C24.3,25,24.1,25.1,23.9,25.1z M16.2,17.9l3.2,2.3l4.5,3.3
					l4.5-3.3l3.2-2.3H16.2z"/>
			</g>
			<g>
				<path class="st2" d="M33.4,31.7H14.5c-0.7,0-1.2-0.5-1.2-1.2V21c0-0.5,0.3-0.9,0.7-1.1s0.9-0.2,1.3,0.1l4.2,3.1l4.6,3.3l4.5-3.3
					l4.2-3.1c0.4-0.3,0.9-0.3,1.3-0.1c0.4,0.2,0.7,0.6,0.7,1.1v9.5C34.6,31.2,34,31.7,33.4,31.7z M14.7,30.3h18.4v-8.9l-3.8,2.9
					l-4.7,3.4c-0.4,0.3-1,0.3-1.4,0l-4.7-3.4l-3.8-2.9V30.3z"/>
			</g>
		</g>
	</g>
	<g id="innerlight">
		<g class="st1">
			<path class="st2" d="M10.9,37c-7.2-7.2-7.2-18.8,0-25.9s18.8-7.2,25.9,0"/>
		</g>
	</g>
</g>
</svg>
