<?xml version="1.0" encoding="utf-8"?>
<!-- Generator: Adobe Illustrator 21.0.0, SVG Export Plug-In . SVG Version: 6.00 Build 0)  -->
<svg version="1.1" id="Layer_1" xmlns="http://www.w3.org/2000/svg" xmlns:xlink="http://www.w3.org/1999/xlink" x="0px" y="0px"
	 viewBox="0 0 48 48" style="enable-background:new 0 0 48 48;" xml:space="preserve">
<style type="text/css">
	.st0{fill:#6081C4;}
	.st1{fill:none;stroke:#6081C4;stroke-linecap:round;stroke-linejoin:round;stroke-miterlimit:10;}
	.st2{opacity:0.15;enable-background:new    ;}
	.st3{opacity:0.2;}
	.st4{fill:#FFFFFF;}
</style>
<circle class="st0" cx="24" cy="24" r="22.5"/>
<path class="st1" d="M41.3,7.4C45.4,11.7,48,17.5,48,24c0,13.2-10.8,24-24,24S0,37.2,0,24S10.8,0,24,0c2.9,0,5.8,0.5,8.3,1.5"/>
<path class="st1" d="M35.6,3c1,0.5,2,1.2,2.8,1.9"/>
<circle class="st2" cx="24" cy="24" r="19.6"/>
<circle class="st2" cx="24" cy="24" r="15.1"/>
<g id="XMLID_1_">
	<g class="st3">
		<path d="M26.6,18.7v-2.3c0-1.1,0.8-1.4,1.3-1.4s3.3,0,3.3,0v-4.9h-4.5c-4.9,0-6,3.7-6,6v2.6h-2.8v3.4v2.3h2.8c0,6.5,0,14.4,0,14.4
			h5.8c0,0,0-7.9,0-14.4h4.3l0.2-2.2l0.3-3.5H26.6z"/>
	</g>
	<g>
		<path class="st4" d="M26.2,18.2v-2.3c0-1.1,0.8-1.4,1.3-1.4c0.5,0,3.3,0,3.3,0V9.6h-4.5c-4.9,0-6,3.7-6,6v2.6h-2.8v3.4V24h2.9
			c0,6.5,0,14.4,0,14.4h5.8c0,0,0-7.9,0-14.4h4.3l0.2-2.2l0.3-3.5H26.2z"/>
	</g>
</g>
</svg>
