<?xml version="1.0" encoding="utf-8"?>
<!-- Generator: Adobe Illustrator 21.0.0, SVG Export Plug-In . SVG Version: 6.00 Build 0)  -->
<svg version="1.1" id="Layer_1" xmlns="http://www.w3.org/2000/svg" xmlns:xlink="http://www.w3.org/1999/xlink" x="0px" y="0px"
	 viewBox="0 0 48 48" style="enable-background:new 0 0 48 48;" xml:space="preserve">
<style type="text/css">
	.st0{fill:#E02F2F;}
	.st1{fill:#FFFFFF;}
</style>
<g>
	<circle class="st0" cx="24" cy="24" r="24"/>
	<g>
		<path class="st1" d="M28.5,9c0,0-6.9,0-9.2,0C15,9,11,12,11,15.7c0,3.8,2.9,6.7,7.2,6.7c0.3,0,0.6-0.1,0.9-0.1
			c-0.3,0.5-0.5,1.1-0.5,1.7c0,1.1,0.6,1.9,1.3,2.6c-0.5,0-1.1,0-1.6,0C13,26.7,9,30,9,33.5c0,3.4,4.4,5.5,9.7,5.5
			c6,0,9.3-3.4,9.3-6.8c0-2.7-0.8-4.4-3.3-6.1c-0.9-0.6-2.5-2.1-2.5-2.9c0-1,0.3-1.5,1.8-2.7c1.6-1.2,2.7-2.7,2.7-4.7
			c0-2.4-1-5.3-3-5.3H27L28.5,9z M25.4,31.6c0.1,0.3,0.1,0.6,0.1,1c0,2.8-1.8,4.9-6.9,4.9c-3.6,0-6.2-2.3-6.2-5
			c0-2.7,3.2-4.9,6.9-4.9c0.8,0,1.6,0.1,2.3,0.4C23.6,29.3,25,30.1,25.4,31.6z M19.6,21.3c-2.4-0.1-4.7-2.7-5.2-5.9
			c-0.4-3.2,1.2-5.6,3.6-5.6c2.4,0.1,4.7,2.6,5.2,5.8C23.7,18.9,22,21.4,19.6,21.3z"/>
		<polygon class="st1" points="36,21 36,16.5 33,16.5 33,21 28.5,21 28.5,24 33,24 33,28.5 36,28.5 36,24 40.5,24 40.5,21 		"/>
	</g>
</g>
</svg>
