<?xml version="1.0" encoding="utf-8"?>
<!-- Generator: Adobe Illustrator 21.0.0, SVG Export Plug-In . SVG Version: 6.00 Build 0)  -->
<svg version="1.1" id="Layer_1" xmlns="http://www.w3.org/2000/svg" xmlns:xlink="http://www.w3.org/1999/xlink" x="0px" y="0px"
	 viewBox="0 0 48 48" style="enable-background:new 0 0 48 48;" xml:space="preserve">
<style type="text/css">
	.st0{fill:#C5232D;}
	.st1{fill:#FFFFFF;}
</style>
<g>
	<circle class="st0" cx="24" cy="24" r="24"/>
	<path id="Pinterest_1_" class="st1" d="M24,13.2c-6,0-10.8,4.9-10.8,10.8c0,4.4,2.7,8.2,6.5,9.9c0-0.8,0-1.7,0.2-2.5
		c0.2-0.9,1.4-5.9,1.4-5.9s-0.3-0.7-0.3-1.7c0-1.6,0.9-2.8,2.1-2.8c1,0,1.5,0.7,1.5,1.6c0,1-0.6,2.5-1,3.8c-0.3,1.2,0.6,2.1,1.7,2.1
		c2.1,0,3.4-2.6,3.4-5.8c0-2.4-1.6-4.2-4.5-4.2c-3.3,0-5.3,2.5-5.3,5.2c0,0.9,0.3,1.6,0.7,2.1c0.2,0.2,0.2,0.3,0.2,0.6
		c-0.1,0.2-0.2,0.7-0.2,0.9c-0.1,0.3-0.3,0.4-0.5,0.3c-1.5-0.6-2.2-2.3-2.2-4.1c0-3.1,2.6-6.8,7.7-6.8c4.1,0,6.9,3,6.9,6.2
		c0,4.3-2.4,7.4-5.8,7.4c-1.2,0-2.3-0.6-2.6-1.3c0,0-0.6,2.5-0.8,3c-0.2,0.8-0.7,1.7-1.1,2.3c1,0.3,2,0.4,3.1,0.4
		c6,0,10.8-4.9,10.8-10.8C34.8,18,30,13.2,24,13.2z"/>
</g>
</svg>
