<?xml version="1.0" encoding="utf-8"?>
<!-- Generator: Adobe Illustrator 21.0.0, SVG Export Plug-In . SVG Version: 6.00 Build 0)  -->
<svg version="1.1" id="Layer_1" xmlns="http://www.w3.org/2000/svg" xmlns:xlink="http://www.w3.org/1999/xlink" x="0px" y="0px"
	 viewBox="0 0 48 48" style="enable-background:new 0 0 48 48;" xml:space="preserve">
<style type="text/css">
	.st0{fill:#F8991D;}
	.st1{fill:#FFFFFF;}
</style>
<g id="Group_43" transform="translate(2578 489)">
	<circle id="Ellipse_24" class="st0" cx="-2554" cy="-465" r="24"/>
	<g id="Group_42" transform="translate(0 -2.57)">
		<circle id="Ellipse_25" class="st1" cx="-2563.6" cy="-453.1" r="3.6"/>
		<path id="Path_135" class="st1" d="M-2567.2-466.7v5c3.2,0,6.4,1.2,8.7,3.5c2.3,2.3,3.6,5.4,3.6,8.7h5.1
			c0.1-9.4-7.3-17.1-16.7-17.2C-2566.7-466.7-2567-466.7-2567.2-466.7z"/>
		<path id="Path_136" class="st1" d="M-2567.2-470.6v-5c0,0,10-0.6,18.4,7.4c8.3,8,8,18.8,8,18.8h-5.1c-0.1-5.6-2.3-10.9-6.2-15
			C-2558.7-471-2567.2-470.6-2567.2-470.6z"/>
	</g>
</g>
</svg>
