<?xml version="1.0" encoding="utf-8"?>
<!-- Generator: Adobe Illustrator 21.0.0, SVG Export Plug-In . SVG Version: 6.00 Build 0)  -->
<svg version="1.1" id="Capa_1" xmlns="http://www.w3.org/2000/svg" xmlns:xlink="http://www.w3.org/1999/xlink" x="0px" y="0px"
	 viewBox="0 0 48 48" style="enable-background:new 0 0 48 48;" xml:space="preserve">
<style type="text/css">
	.st0{fill:#5BA7EB;}
	.st1{fill:#2F87C9;}
	.st2{fill:#FFFFFF;}
</style>
<g>
	<g>
		<path class="st0" d="M39.9,8.2L8.3,40c4,4,9.6,6.5,15.7,6.5c12.4,0,22.4-10,22.4-22.4C46.5,17.9,44,12.3,39.9,8.2z"/>
	</g>
	<g>
		<path class="st1" d="M24.1,1.7c-12.4,0-22.4,10-22.4,22.4c0,6.2,2.5,11.9,6.7,15.9L39.9,8.2C35.9,4.2,30.3,1.7,24.1,1.7z"/>
	</g>
	<g>
		<path class="st0" d="M24,48c-6.4,0-12.4-2.5-17-7c-4.5-4.5-7-10.6-7-17S2.5,11.6,7,7c4.5-4.5,10.6-7,17-7c6.4,0,12.4,2.5,17,7
			c4.5,4.5,7,10.6,7,17s-2.5,12.4-7,17C36.4,45.5,30.4,48,24,48z M24,0.5C11,0.5,0.5,11,0.5,24S11,47.5,24,47.5
			C37,47.5,47.5,37,47.5,24S37,0.5,24,0.5z"/>
	</g>
	<g>
		<path class="st2" d="M23.6,20c0-0.7,0-1.2,0-1.8c0.2-2.4,2.2-4.5,4.6-4.8c1.7-0.2,3.2,0.3,4.5,1.4c0.1,0.1,0.4,0.2,0.5,0.1
			c0.8-0.3,1.6-0.6,2.4-0.8c0.2-0.1,0.4-0.2,0.6-0.2c-0.1,0.6-0.4,1.1-0.8,1.5c-0.4,0.4-0.8,0.8-1.3,1.3c1-0.1,1.9-0.4,2.8-0.6
			c-0.2,0.3-0.4,0.6-0.7,0.9c-0.5,0.5-1,1-1.5,1.5c-0.2,0.2-0.3,0.4-0.3,0.7c0,3.3-0.9,6.4-2.8,9.1c-2.5,3.6-6,5.8-10.3,6.4
			c-3.5,0.5-6.9-0.1-10-1.9c-0.1-0.1-0.2-0.1-0.3-0.3c1.4,0.1,2.7,0,4-0.4c1.3-0.4,2.5-1,3.6-1.9c-2.4-0.3-4-1.5-4.9-3.7
			c0.4,0,0.8,0,1.2,0c0.3,0,0.7-0.1,1-0.2c-1.6-0.5-2.7-1.4-3.5-2.8c-0.4-0.8-0.6-1.6-0.6-2.6c0.7,0.3,1.5,0.6,2.3,0.6
			c-2.3-2-2.9-4.4-1.6-7.2C15.5,17.8,19.1,19.8,23.6,20z"/>
	</g>
</g>
</svg>
